REM MD5 3f0e203826e627ec1cdaf92ecb59f7fb
FILE "Street Fighter II Movie (Japan) (Disc 1).bin" BINARY
  TRACK 01 MODE2/2352
    INDEX 01 00:00:00
  TRACK 02 AUDIO
    INDEX 00 48:53:59
    INDEX 01 48:55:59
  TRACK 03 AUDIO
    INDEX 00 50:04:55
    INDEX 01 50:06:55
REM LEADOUT 53:36:55
